<svg xmlns="http://www.w3.org/2000/svg" width="16" height="16" viewBox="0 0 16 16" fill="none">
  <path d="M6.66667 3.66667C6.66667 5.32352 5.32352 6.66667 3.66667 6.66667C2.00981 6.66667 0.666667 5.32352 0.666667 3.66667C0.666667 2.00981 2.00981 0.666667 3.66667 0.666667C5.32352 0.666667 6.66667 2.00981 6.66667 3.66667Z" stroke="#242529" stroke-width="1.33333" transform="translate(5 1.33333)"/>
  <path d="M0.684863 3.31867C0.90225 1.79696 2.20549 0.666667 3.74265 0.666667H9.71813C11.2553 0.666667 12.5585 1.79696 12.7759 3.31867C12.9278 4.38199 12.1027 5.33333 11.0286 5.33333H2.43217C1.35805 5.33333 0.53296 4.38199 0.684863 3.31867Z" stroke="#242529" stroke-width="1.33333" transform="translate(1.33333 9.33333)"/>
</svg>
